<svg xmlns="http://www.w3.org/2000/svg" width="16" height="16" viewBox="0 0 16 16"><defs><style>.a{fill:#333334;}</style></defs><path class="a" d="M3.924,4.5H1.471a.5.5,0,0,0-.49.5V7a.5.5,0,0,0,.49.5H3.924v1H1.471a.5.5,0,0,0-.49.5v2a.5.5,0,0,0,.49.5H3.924V14h7.848v1.5a.5.5,0,0,1-.49.5H0V0H11.281a.5.5,0,0,1,.49.5V2H3.924Z" transform="translate(0)"/><path class="a" d="M10.723,9.176H0V0H10.723V9.175ZM5.593.912A2.315,2.315,0,0,0,5.239.94a1.467,1.467,0,0,0-.365.107,1.588,1.588,0,0,0-.358.218,1.439,1.439,0,0,0-.316.36,1.724,1.724,0,0,0-.235.522,3.945,3.945,0,0,0-.138,1.148.5.5,0,0,0-.1.166.725.725,0,0,0-.041.19.583.583,0,0,0,.033.245.632.632,0,0,0,.09.205.679.679,0,0,0,.1.111.343.343,0,0,0,.1.056c.024.088.049.173.074.253.023.064.05.13.082.2a.49.49,0,0,0,.1.154c.089.078.164.149.231.218a.45.45,0,0,1,.119.288c.005.1.008.168.008.23a.526.526,0,0,1-.038.2A.661.661,0,0,1,4.475,6a1.138,1.138,0,0,1-.238.2,1.591,1.591,0,0,1-.463.206c-.171.046-.34.1-.5.162a1.438,1.438,0,0,0-.425.245.669.669,0,0,0-.22.447,3.243,3.243,0,0,0-.034.839.72.72,0,0,0,.115.387.583.583,0,0,0,.217.079c.111.026.248.052.418.08s.338.05.548.075.413.046.607.063.385.032.593.044c.186.01.355.016.5.016s.32-.005.511-.016c.214-.012.415-.026.615-.044s.411-.039.637-.067c.209-.026.4-.057.574-.091a4.053,4.053,0,0,0,.432-.107A.432.432,0,0,0,8.574,8.4a.709.709,0,0,0,.078-.253,2.231,2.231,0,0,0,.026-.356c0-.126-.006-.252-.019-.375A1.761,1.761,0,0,0,8.6,7.106a.66.66,0,0,0-.227-.336,1.551,1.551,0,0,0-.369-.206c-.143-.056-.287-.106-.429-.146a3.524,3.524,0,0,1-.407-.143,1.051,1.051,0,0,1-.324-.2.758.758,0,0,1-.171-.233A.684.684,0,0,1,6.614,5.6a.964.964,0,0,1,.015-.241.479.479,0,0,1,.119-.282c.06-.055.138-.123.231-.2a.536.536,0,0,0,.108-.154,2.092,2.092,0,0,0,.085-.2c.023-.073.048-.155.075-.253a.375.375,0,0,0,.142-.087A.535.535,0,0,0,7.5,4.025a.783.783,0,0,0,.063-.265.683.683,0,0,0,0-.213A.535.535,0,0,0,7.509,3.4a.276.276,0,0,0-.082-.1,5.514,5.514,0,0,0-.037-.64,3.967,3.967,0,0,0-.127-.582,1.708,1.708,0,0,0-.283-.557A1.158,1.158,0,0,0,6.752,1.3a1.813,1.813,0,0,0-.332-.2,2.164,2.164,0,0,0-.4-.138A1.813,1.813,0,0,0,5.593.912Z" transform="translate(5.277 3.438)"/></svg>