<svg xmlns="http://www.w3.org/2000/svg" width="14" height="14" viewBox="0 0 14 14"><defs><style>.a{fill:#232323;}</style></defs><g transform="translate(-310 -447)"><path class="a" d="M98.851,71.01c-2.9,0-5.44-1-6.48-2.538a2.7,2.7,0,0,1-.49-1.527c0-2.279,3.062-4.065,6.971-4.065s6.971,1.785,6.971,4.065a2.676,2.676,0,0,1-.433,1.44C104.384,69.979,101.818,71.01,98.851,71.01Zm0-6.929c-3.115,0-5.747,1.312-5.747,2.864a1.537,1.537,0,0,0,.287.864c.807,1.2,3,2,5.46,2,2.474,0,4.734-.845,5.5-2.055a1.51,1.51,0,0,0,.251-.809c0-1.552-2.632-2.864-5.747-2.864Z" transform="translate(218.121 384.12)"/><path class="a" d="M98.769,534.131c-2.966,0-5.586-.946-6.838-2.469a.593.593,0,0,1,.092-.844.62.62,0,0,1,.86.09c1.01,1.229,3.32,2.022,5.885,2.022,2.427,0,4.686-.736,5.756-1.875a.621.621,0,0,1,.865-.035.593.593,0,0,1,.035.849C104.115,533.264,101.564,534.131,98.769,534.131Z" transform="translate(218.204 -76.442)"/><path class="a" d="M98.824,743.632c-2.964,0-5.583-.945-6.835-2.468a.593.593,0,0,1,.092-.845.62.62,0,0,1,.86.09c1.01,1.228,3.319,2.021,5.883,2.021,2.581,0,4.964-.836,5.93-2.081a.619.619,0,0,1,.857-.114.593.593,0,0,1,.116.842C104.524,742.63,101.814,743.632,98.824,743.632Z" transform="translate(218.147 -282.632)"/></g></svg>