<svg xmlns="http://www.w3.org/2000/svg" width="19" height="19" viewBox="0 0 19 19"><defs><style>.a{fill:#ff3a3a;}</style></defs><g transform="translate(-310 -447)"><path class="a" d="M101.34,73.913c-3.93,0-7.383-1.352-8.794-3.444A3.663,3.663,0,0,1,91.88,68.4c0-3.093,4.155-5.516,9.46-5.516S110.8,65.3,110.8,68.4a3.631,3.631,0,0,1-.588,1.954C108.849,72.514,105.367,73.913,101.34,73.913Zm0-9.4c-4.228,0-7.8,1.78-7.8,3.886a2.085,2.085,0,0,0,.389,1.172c1.1,1.624,4.074,2.715,7.41,2.715,3.358,0,6.425-1.147,7.459-2.789a2.049,2.049,0,0,0,.341-1.1c0-2.106-3.571-3.886-7.8-3.886Z" transform="translate(218.122 384.12)"/><path class="a" d="M101.259,535.362c-4.025,0-7.581-1.284-9.28-3.351a.8.8,0,0,1,.125-1.146.841.841,0,0,1,1.168.122c1.37,1.667,4.505,2.745,7.987,2.745,3.293,0,6.36-1,7.812-2.545a.842.842,0,0,1,1.174-.047.8.8,0,0,1,.048,1.152C108.514,534.185,105.053,535.362,101.259,535.362Z" transform="translate(218.204 -73.855)"/><path class="a" d="M101.313,744.889c-4.022,0-7.577-1.283-9.275-3.349a.8.8,0,0,1,.125-1.146.841.841,0,0,1,1.168.123c1.37,1.666,4.5,2.743,7.983,2.743,3.5,0,6.737-1.135,8.048-2.824a.84.84,0,0,1,1.164-.154.8.8,0,0,1,.157,1.142c-1.634,2.106-5.312,3.466-9.369,3.466Z" transform="translate(218.148 -278.889)"/></g></svg>