<svg xmlns="http://www.w3.org/2000/svg" width="14" height="14" viewBox="0 0 14 14"><defs><style>.a{fill:#232323;}</style></defs><g transform="translate(-65 -64.3)"><path class="a" d="M78,75.326H66a1,1,0,0,1-1-1V65.3a1,1,0,0,1,1-1H78a1,1,0,0,1,1,1v9.018A1,1,0,0,1,78,75.326Zm-12-1H78l0,0V65.306l0,0H66l0,0,0,9.016Z"/><path class="a" d="M132.985,246.373h0c-.431,0-.655-.428-.765-.635-.127-.24-.257-.553-.384-.855-.1-.24-.205-.488-.3-.689-.036-.074-.066-.133-.093-.179a2.6,2.6,0,0,0-.311.3c-.185.2-.321.39-.323.391a.506.506,0,0,1-.7.114.486.486,0,0,1-.116-.687,6.037,6.037,0,0,1,.453-.542,1.65,1.65,0,0,1,1.1-.653h0a.721.721,0,0,1,.554.284,2.085,2.085,0,0,1,.246.378c.138.259.278.59.411.909.058.139.14.333.221.513.13-.265.276-.589.384-.824.687-1.516,1.043-2.245,1.634-2.245.539,0,.988.527,1.661,1.395.116.149.271.35.39.487a9.224,9.224,0,0,0,1.132-1.317c.511-.675.949-1.324.953-1.33a.506.506,0,0,1,.695-.139.487.487,0,0,1,.141.683c-.02.031-.513.761-1.085,1.505a13.215,13.215,0,0,1-.886,1.059c-.42.439-.71.618-1,.618a.955.955,0,0,1-.677-.4c-.14-.156-.295-.356-.461-.57-.187-.24-.379-.49-.563-.692a2.7,2.7,0,0,0-.227-.228,4.2,4.2,0,0,0-.256.444c-.173.333-.356.738-.533,1.129s-.35.772-.5,1.06a3.031,3.031,0,0,1-.24.394A.707.707,0,0,1,132.985,246.373ZM136.9,243.943ZM131.591,243.918ZM134.939,242.927Zm.069,7.37a3.7,3.7,0,0,1-1.595-.33,1.216,1.216,0,0,1-.8-1.042.392.392,0,0,1,.784,0c0,.211.613.6,1.615.6s1.615-.388,1.615-.6a.392.392,0,0,1,.784,0,1.219,1.219,0,0,1-.8,1.042A3.7,3.7,0,0,1,135.008,250.3Zm-5.506,1.746a.493.493,0,1,1,0-.986l11.03-.011a.493.493,0,1,1,0,.986Z" transform="translate(-63.014 -173.743)"/></g></svg>