<svg xmlns="http://www.w3.org/2000/svg" width="30" height="30" viewBox="0 0 30 30"><defs><style>.a{fill:#fff;}</style></defs><g transform="translate(-64.524 -64.398)"><path class="a" d="M391.9,238.763a4.341,4.341,0,1,0-4.341,4.341A4.346,4.346,0,0,0,391.9,238.763Z" transform="translate(-308.086 -164.363)"/><path class="a" d="M90.13,68.791A15,15,0,1,0,94.523,79.4,14.9,14.9,0,0,0,90.13,68.791Zm-3.235,19.02a.67.67,0,0,1-.67-.67,6.749,6.749,0,1,0-13.5,0,.67.67,0,1,1-1.339,0,8.1,8.1,0,0,1,5.571-7.687,5.672,5.672,0,1,1,5.035,0,8.1,8.1,0,0,1,5.571,7.687A.67.67,0,0,1,86.894,87.811Z"/></g></svg>